<?xml version="1.0" encoding="utf-8"?>
<!-- Generator: Adobe Illustrator 28.1.0, SVG Export Plug-In . SVG Version: 6.00 Build 0)  -->
<svg version="1.1" id="Layer_1" xmlns="http://www.w3.org/2000/svg" xmlns:xlink="http://www.w3.org/1999/xlink" x="0px" y="0px"
	 viewBox="0 0 1260.88 363.74" style="enable-background:new 0 0 1260.88 363.74;" xml:space="preserve">
<style type="text/css">
	.st0{fill:#1C3557;}
	.st1{fill:url(#SVGID_1_);}
	.st2{fill:none;stroke:url(#SVGID_00000134945009392850781940000003184791836414271148_);stroke-miterlimit:10;}
	.st3{fill:#E53946;}
	.st4{fill:#E5873F;}
	.st5{fill:#E5D639;}
	.st6{fill:#F1F7ED;}
	.st7{fill:url(#SVGID_00000131369784799302826600000004543160264200425099_);}
	.st8{fill:url(#SVGID_00000087386001369711754300000001442775894715660221_);}
	.st9{fill:url(#SVGID_00000135678888919950761260000003839314363950502569_);}
	.st10{fill:#FFFFFF;}
	.st11{fill:none;stroke:url(#SVGID_00000140004577688812730250000000848368154357395647_);stroke-miterlimit:10;}
	.st12{fill:none;stroke:#1C3557;stroke-miterlimit:10;}
	.st13{fill:none;stroke:url(#SVGID_00000032623375419608634230000007607400763899519675_);stroke-miterlimit:10;}
	.st14{fill:none;stroke:#F1F7ED;stroke-miterlimit:10;}
	.st15{opacity:0.8;fill:#FFFFFF;}
	.st16{fill:#F1F7ED;stroke:#1C3557;stroke-width:3.0124;stroke-miterlimit:10;}
	.st17{fill:#1C3557;stroke:#F1F7ED;stroke-width:3.0124;stroke-miterlimit:10;}
	.st18{fill:#F2F7ED;}
	.st19{fill:none;stroke:#E53946;stroke-width:3.0552;stroke-linejoin:round;stroke-dasharray:7.1825,7.1825,14.9636,7.1825;}
	.st20{fill:none;stroke:url(#SVGID_00000020392473454865097810000010385362040842524856_);stroke-miterlimit:10;}
	.st21{fill:none;stroke:url(#SVGID_00000130613233494706595990000001189647876114771332_);stroke-miterlimit:10;}
	.st22{fill:#7C7C7C;}
	.st23{fill:#020103;}
	.st24{fill:#020102;}
	.st25{fill:#031BC7;}
	.st26{fill:#0B19D3;}
	.st27{fill:#E60702;}
	.st28{fill:#0109EF;}
	.st29{fill:#0204E5;}
	.st30{fill:#0111F2;}
	.st31{fill:#0102F6;}
	.st32{fill:#D81607;}
	.st33{fill:#E71004;}
	.st34{fill:#18E429;}
	.st35{fill:#D61FE6;}
	.st36{fill:#EF0D03;}
	.st37{fill:#2CEDF7;}
	.st38{fill:#2FDFF6;}
	.st39{fill:#FCD926;}
	.st40{fill:#0FF0FA;}
	.st41{fill:#0AECFA;}
	.st42{fill:#17F8FA;}
	.st43{fill:#F9EB2E;}
	.st44{fill:#FDF816;}
	.st45{fill:#FCFDFC;}
	.st46{fill:#05FBFC;}
	.st47{fill:#FDFD01;}
	.st48{fill:#FCF90B;}
	.st49{fill:#FCF10D;}
	.st50{fill:#A8D9DB;}
	.st51{fill:#B4DEDE;}
	.st52{fill:#C0E3E1;}
	.st53{fill:#CDE8E4;}
	.st54{fill:#D9EDE7;}
	.st55{fill:#E5F2EA;}
	.st56{fill:#467C9D;}
	.st57{fill:#427697;}
	.st58{fill:#3F7091;}
	.st59{fill:#3B6A8C;}
	.st60{fill:#386486;}
	.st61{fill:#345E80;}
	.st62{fill:#31587A;}
	.st63{fill:#2D5374;}
	.st64{fill:#2A4D6E;}
	.st65{fill:#264769;}
	.st66{fill:#234163;}
	.st67{fill:#1F3B5D;}
	.st68{fill:#FEFEFE;}
	.st69{fill:#FDFEFC;}
	.st70{fill:#FCFDFB;}
	.st71{fill:#FAFCF9;}
	.st72{fill:#F9FCF8;}
	.st73{fill:#F8FBF6;}
	.st74{fill:#F7FAF5;}
	.st75{fill:#F6FAF3;}
	.st76{fill:#F5F9F2;}
	.st77{fill:#F3F8F0;}
	.st78{fill:#F2F8EF;}
</style>
<linearGradient id="SVGID_1_" gradientUnits="userSpaceOnUse" x1="630.44" y1="379.1722" x2="630.44" y2="147.1712">
	<stop  offset="0.1" style="stop-color:#1C3557;stop-opacity:0.3"/>
	<stop  offset="0.2369" style="stop-color:#1D3759;stop-opacity:0.4198"/>
	<stop  offset="0.9" style="stop-color:#1F3B5D"/>
</linearGradient>
<path class="st1" d="M3.66,244.05c5.18-4.43,13.02-0.8,19.87-0.1c22.15,2.24,45.13-4.23,62.68-17.96c4.16-3.26,8.2-7.16,9.67-12.23
	c1.6-5.52-0.09-11.41-1.96-16.84c-4.62-13.43-10.42-26.5-13.57-40.35c-3.15-13.85-3.45-28.9,2.67-41.71
	c7.36,24.86,14.73,49.72,22.09,74.58c5.59,18.88,11.75,38.71,26.15,52.15s39.83,17.16,52.91,2.45c0.69-0.77,1.35-1.61,1.69-2.59
	c0.72-2.07-0.09-4.35-1.07-6.31c-4.48-8.98-12.43-15.79-17.3-24.55s-5.43-21.67,2.98-27.14c18.96,12.07,26,36.99,24.19,59.39
	c-0.79,9.77-3.15,19.83-9.46,27.33c-12.35,14.67-36.5,14.26-52.35,3.46s-24.81-29.12-30.79-47.34
	c-2.94,13.04-12.28,24.01-23.54,31.22c-11.26,7.21-24.36,11.03-37.47,13.66c-10.1,2.03-21.15,3.27-30.23-1.61
	c-6.62-3.56-13.86-14.91-9.5-22.59C2.02,245.74,2.81,244.78,3.66,244.05z M165.24,315.83c2.72-1.04,6.06,0.33,8.79,1.73
	c4.18,2.13,8.35,4.27,12.53,6.4c1.05,0.53,2.15,1.08,3.32,1.05c1.44-0.04,2.72-0.95,3.69-2.02c2.76-3.06,3.56-7.35,5.1-11.17
	s4.65-7.7,8.77-7.58c2.39,0.07,4.5,1.49,6.45,2.86c4.58,3.2,9.56,7.01,10.41,12.54c0.92,6.01-3.4,11.43-7.45,15.97
	c-0.94,1.06-1.96,2.17-3.32,2.58c-1.82,0.56-3.76-0.27-5.48-1.08c-3.48-1.63-6.95-3.26-10.43-4.88c-1.33-0.62-2.72-1.26-4.18-1.19
	c-2.74,0.12-4.78,2.61-5.82,5.15c-1.04,2.53-1.47,5.34-2.92,7.66c-2.69,4.29-8.37,5.9-13.38,5.21s-9.54-3.27-13.94-5.79
	c-9.5-5.46,0.43-16.02,3.9-22.94c0.74-1.47,1.53-3.01,2.9-3.94C164.52,316.15,164.88,315.97,165.24,315.83z M387.83,261.69
	c26.36,1.34,60.81-5.43,72.33-32.47c2.24-4.18,3.73-12.21,7-14.39c5.01,3.61,1.42,13.49,0.66,18.88
	c0.51,5.09-14.07,23.98-8.98,25.21c15.01-2.11,33.48-4.47,46.99-11.22c10.39-4.76,14.15-15.93,18.88-25.81
	c4.07-11.26,17.56-26.96,10.23-3.43c-0.96,4.55-6.41,11.67-1.19,14.98c8.96,4.08,19.36,6.84,29.11,8.45
	c3.76-0.18,4.76-1.67,4.22-5.02c-1.11-7.66-2.22-20.79-2.9-28.25c-0.21-7.2,8.33-41.87,12.15-17.16c4.64,24.87,1.69,52-9.57,74.84
	c-9.49,9.94-38.87-2.48-45.74-12.27c-2.3-3.59-6.82,7.16-8.98,8.58c-17.41,23.09-47.55,20.34-72.99,16.89
	c-6.78,0.16-12.87,4.48-19.53,6.07c-16.53,4.3-37.66,7.9-53.13,0.46c-24.27-10.33-31.65-30.96-40.32-52.47
	c-3.97,3.72-5.62,11.7-8.32,16.5c-7.2,11.07-19.55,17.1-31.41,21.78c-15.31,5.17-45.98,15.05-58.34,0.99
	c-3.41-4.67-0.82-20.76,1.19-26.2c2.47-4.41,7.91,2.84,10.96,3.56c4.08,1,8.85,1.72,13.07,1.58c25.43-0.26,54.32-9.03,67.05-31.02
	c3.86-8.64-3.3-18-5.28-26.14c-4.08-19.09-15.05-41.86-8.65-61.38c0.5-2.42,1.63-13.19,4.49-8.78
	C327.59,170.98,325.17,254.19,387.83,261.69z M258.84,348.71c3.72-2.55,9.29-3.96,12.51-5.33c23.33-9.92,46.66-19.84,70-29.76
	c0.88-0.37,1.78-0.75,2.73-0.87c4.93-0.62,7.9,6.3,5.68,10.75c-2.21,4.45-7.18,6.67-11.78,8.56c-25.19,10.35-50.39,20.7-75.58,31.05
	c-7.4,3.04-9.32-5.41-6.82-10.83C256.22,350.87,257.39,349.7,258.84,348.71z M475.89,121.29c1.04-0.11,2.12,0.17,3.13,0.49
	c3.84,1.25,7.44,3.24,10.53,5.82c2.18,1.82,4.56,4.1,7.38,3.72c1.61-0.21,2.98-1.29,4.01-2.55c2.65-3.24,3.38-7.59,5-11.46
	s4.97-7.71,9.15-7.35c2.03,0.17,3.83,1.33,5.49,2.51c4.13,2.95,7.97,6.32,11.44,10.03c2.12,2.26,4.21,5.02,3.94,8.1
	c-0.19,2.13-1.48,3.98-2.74,5.72c-3.93,5.45-9.52,11.58-16.07,10.06c-6.44-1.5-10.54-10.07-17.07-9.03
	c-8.01,1.27-7.74,14.88-15.34,17.72c-2.77,1.03-5.89,0.27-8.61-0.87c-17.04-7.15-12.86-17.06-4-30.04c0.73-1.07,1.56-2.18,2.77-2.65
	C475.23,121.4,475.56,121.32,475.89,121.29z M482.16,72.95c0.33-0.23,0.69-0.42,1.08-0.53c2.33-0.66,4.45,1.42,5.99,3.3
	c5.6,6.86,11.57,15.4,8.82,23.82c-1.27,3.9-4.25,6.98-7.14,9.9c-1.13,1.14-2.41,2.35-4.01,2.44c-1.27,0.07-2.44-0.6-3.51-1.29
	c-17.58-11.45-12.55-19.6-3.43-34.9C480.56,74.67,481.24,73.61,482.16,72.95z M871.06,277.09c-24.65-0.29-49.25-2.03-73.79-5.78
	c-2.31-0.35-4.82-0.69-6.87,0.43c-3.9,2.13-3.62,7.69-3.27,12.13c2.09,26.28-13.27,52.35-35.76,66.11
	c-22.49,13.76-50.94,15.96-76.4,9.11c-14.02-3.77-27.96-10.66-36.1-22.7c-10.36-15.32-8.92-35.05-4.25-52.09
	c2.17-7.92,3.96-16.5,6.94-24.13c1.66-4.27,3.85-8.33,6.49-12.07c1.12-1.58,8.46-8.11,8.42-9.44c0.62,19.65-15.54,37.29-13.56,56.85
	c1.27,12.54,10.16,23.41,21.11,29.67s23.74,8.48,36.32,9.32c16.92,1.12,34.47-0.21,49.68-7.69s27.71-22,29.27-38.88
	c1.35-14.58-5.26-28.52-10.15-42.33c-4.88-13.8-7.89-29.99-0.12-42.4c7.87,3.55,7.69,14.49,10.61,22.62
	c6.28,17.48,28.24,22.51,46.74,24.07c108.52,9.15,217.22-9.99,324.44-29.06c-7.42-10.58-20.32-16.25-33.14-17.86
	c-12.82-1.61-25.79,0.33-38.58,2.16c-55.75,7.99-111.85,14-168.14,15.93c-21.77,0.75-44.41,0.71-64.15-8.5
	c-3.61-1.69-7.25-3.82-9.28-7.25c-4.05-6.86-0.16-15.55,4.09-22.28c25.96-41.16,66.99-72.57,113.49-86.89
	c0.75,9.18-4.83,17.9-12.03,23.65s-15.93,9.14-24.28,13.03c-22.53,10.48-43.15,25.03-60.58,42.74c-2.2,2.24-4.52,4.99-4.11,8.1
	c0.5,3.86,4.76,5.89,8.49,7c15.39,4.57,31.65,5.2,47.71,5.36c46.06,0.47,92.16-2.66,137.74-9.34c26.96-3.95,53.94-9.16,81.18-8.53
	c10.4,0.24,21.7,1.76,28.96,9.21c6.31,6.47,8.17,16.29,6.99,25.26c-1.18,8.96-5.01,17.33-8.8,25.54c-1.44,3.12-3.04,6.43-5.98,8.22
	c-2.1,1.27-4.63,1.6-7.07,1.9C1052.79,259.5,961.64,278.14,871.06,277.09z M690.37,163.09c20.19,13.91,24.86,17.69,7.46,37.82
	c-2.07,1.79-7.51-3.6-9.44-4.16c-4.07-2.24-10.21-5.51-11.09-10.43C679.14,180.56,684.02,163.95,690.37,163.09z M865.66,39.81
	c0.81-1.32,1.47-2.3,1.76-2.66c4.86-5.99,11.49-10.56,18.91-12.72c10.17-2.96,21.05-1.55,31.47,0.33c6.09,1.1,12.15,2.34,18.17,3.74
	c2.86,0.66,6,1.57,7.53,4.07c1.27,2.09,1.04,4.82-0.01,7.03c-1.05,2.2-2.81,3.98-4.58,5.66c-12.65,11.98-27.67,21.44-43.94,27.67
	c-4.03,1.54-8.2,2.9-12.51,3.04c-1.86,0.06-4.25-0.6-4.37-2.46c-0.08-1.31,1.09-2.31,2.16-3.08c13.35-9.66,27.15-18.68,41.36-27.02
	c-6.23-2.31-12.98-2.7-19.62-3.08c-8.51-0.48-17.6-0.83-24.91,3.55c-5.12,3.07-8.79,8.16-13.94,11.17c-0.49,0.29-1.03,0.56-1.59,0.5
	C857.19,55.11,862.55,44.89,865.66,39.81z M1093.69,308.25c4.55-1.87,13.61,0.04,16.6,0.34c54.21,5.45,110.42-22.41,138.91-68.85
	c2.23-3.63,4.36-7.59,4.31-11.86c-0.04-3.69-1.74-7.17-3.8-10.22c-6.6-9.78-17-16.32-24.58-25.35s-11.82-23.17-4.34-32.28
	c0.67-0.82,1.49-1.61,2.54-1.78c1.23-0.2,2.41,0.52,3.44,1.23c29.79,20.57,41.37,62.52,29.5,96.73s-44.59,59.26-80.28,65.41
	c-21.21,3.66-42.97,1.27-64.28-1.71c-4.84-0.68-19.83-0.76-20.66-7.25C1090.77,310.34,1091.87,308.99,1093.69,308.25z
	 M1204.72,74.29c3.58-2.49,7.15-4.99,10.73-7.48c2.54-1.77,5.4-4.85,3.76-7.48c-0.68-1.09-1.95-1.64-3.15-2.09
	c-7.22-2.73-15.35-4.83-19.99-11c-4.42-5.88-4.4-14.25-1.55-21.04s8.11-12.26,13.62-17.14c6.25-5.52,15.19-10.71,22.43-6.57
	c4.36,2.49,6.43,7.62,7.58,12.5c5.32,22.64-3.29,47.11-18.84,64.41c-8.26,9.18-18.31,16.54-29.17,22.36
	c-5.1,2.73-28.11,15.82-33.54,12.66c-7.04-4.09,19.9-19.47,24.56-22.71C1189.01,85.23,1196.87,79.76,1204.72,74.29z M1230.23,45.48
	c2.95-4.43,0.14-14.69-0.66-20.19c-2.54-14.85-16.55-3.89-23.36,1.06c-7.78,6.64,3.7,10.09,8.98,11.88
	C1217.84,39.43,1227.43,45.13,1230.23,45.48z"/>
</svg>
